# xmcd CD database file
#
# Track frame offsets:
#	150
#	14501
#	29288
#	55089
#	69881
#	83988
#	101932
#	125208
#	149803
#	165386
#	181608
#	204848
#	227098
#
# Disc length: 3269 seconds
#
# Revision: 0
# Processed by: cddbd v1.5.2PL0 Copyright (c) Steve Scherf et al.
# Submitted via: CDex 1.51
#
DISCID=af0cc30d
DTITLE=Hermanos Morales - Moca
DYEAR=2007
DGENRE=Salsa
TTITLE0=Rosa Bonita
TTITLE1=La Salsosa
TTITLE2=Te Lievare
TTITLE3=Buscame
TTITLE4=El Colibri
TTITLE5=Quiereme
TTITLE6=Bamos a Bailar
TTITLE7=Tu me Gustas
TTITLE8=Ven Ven
TTITLE9=Frutas Deliciosa
TTITLE10=Mala Suerte
TTITLE11=Mujer Cambiada
TTITLE12=Si yo Tuviera
EXTD=YEAR: 2007
EXTT0=
EXTT1=
EXTT2=
EXTT3=
EXTT4=
EXTT5=
EXTT6=
EXTT7=
EXTT8=
EXTT9=
EXTT10=
EXTT11=
EXTT12=
PLAYORDER=
